<svg id="visual" viewBox="0 0 900 600" width="900" height="600" xmlns="http://www.w3.org/2000/svg" xmlns:xlink="http://www.w3.org/1999/xlink" version="1.1"><rect x="0" y="0" width="900" height="600" fill="#18181b"></rect><path d="M0 483L10 483C20 483 40 483 60 485.5C80 488 100 493 120 488.8C140 484.7 160 471.3 180 473C200 474.7 220 491.3 240 496.2C260 501 280 494 300 494.5C320 495 340 503 360 507.7C380 512.3 400 513.7 420 505.7C440 497.7 460 480.3 480 477C500 473.7 520 484.3 540 486.7C560 489 580 483 600 477.5C620 472 640 467 660 463C680 459 700 456 720 459.2C740 462.3 760 471.7 780 481.7C800 491.7 820 502.3 840 505.5C860 508.7 880 504.3 890 502.2L900 500L900 601L890 601C880 601 860 601 840 601C820 601 800 601 780 601C760 601 740 601 720 601C700 601 680 601 660 601C640 601 620 601 600 601C580 601 560 601 540 601C520 601 500 601 480 601C460 601 440 601 420 601C400 601 380 601 360 601C340 601 320 601 300 601C280 601 260 601 240 601C220 601 200 601 180 601C160 601 140 601 120 601C100 601 80 601 60 601C40 601 20 601 10 601L0 601Z" fill="#d4d4d8"></path><path d="M0 500L10 502C20 504 40 508 60 515C80 522 100 532 120 532.5C140 533 160 524 180 521C200 518 220 521 240 522.8C260 524.7 280 525.3 300 526.3C320 527.3 340 528.7 360 527.7C380 526.7 400 523.3 420 524.3C440 525.3 460 530.7 480 528.8C500 527 520 518 540 517.8C560 517.7 580 526.3 600 529.5C620 532.7 640 530.3 660 532C680 533.7 700 539.3 720 542.2C740 545 760 545 780 542.3C800 539.7 820 534.3 840 529.3C860 524.3 880 519.7 890 517.3L900 515L900 601L890 601C880 601 860 601 840 601C820 601 800 601 780 601C760 601 740 601 720 601C700 601 680 601 660 601C640 601 620 601 600 601C580 601 560 601 540 601C520 601 500 601 480 601C460 601 440 601 420 601C400 601 380 601 360 601C340 601 320 601 300 601C280 601 260 601 240 601C220 601 200 601 180 601C160 601 140 601 120 601C100 601 80 601 60 601C40 601 20 601 10 601L0 601Z" fill="#e7e7e9"></path><path d="M0 532L10 538.3C20 544.7 40 557.3 60 564.7C80 572 100 574 120 570C140 566 160 556 180 550.8C200 545.7 220 545.3 240 545.7C260 546 280 547 300 552C320 557 340 566 360 570.2C380 574.3 400 573.7 420 568.8C440 564 460 555 480 554C500 553 520 560 540 557.8C560 555.7 580 544.3 600 543.2C620 542 640 551 660 553.8C680 556.7 700 553.3 720 548.8C740 544.3 760 538.7 780 537C800 535.3 820 537.7 840 539.8C860 542 880 544 890 545L900 546L900 601L890 601C880 601 860 601 840 601C820 601 800 601 780 601C760 601 740 601 720 601C700 601 680 601 660 601C640 601 620 601 600 601C580 601 560 601 540 601C520 601 500 601 480 601C460 601 440 601 420 601C400 601 380 601 360 601C340 601 320 601 300 601C280 601 260 601 240 601C220 601 200 601 180 601C160 601 140 601 120 601C100 601 80 601 60 601C40 601 20 601 10 601L0 601Z" fill="#fafafa"></path></svg>